<svg width="25" height="25" viewBox="0 0 25 25" fill="none" xmlns="http://www.w3.org/2000/svg">
<path d="M10.8203 18.3984C6.64063 18.3984 3.20312 15 3.20312 10.7812C3.20312 6.60156 6.60156 3.16406 10.8203 3.16406C15.0391 3.16406 18.4375 6.5625 18.4375 10.7812C18.3984 15 15 18.3984 10.8203 18.3984ZM10.8203 4.29687C7.22656 4.29687 4.29687 7.22656 4.29687 10.8203C4.29687 14.4141 7.22656 17.3437 10.8203 17.3437C14.4141 17.3437 17.3437 14.4141 17.3437 10.8203C17.3047 7.22656 14.375 4.29687 10.8203 4.29687Z" fill="white"/>
<path d="M20.9766 21.7969L15.6641 16.5234L16.5234 15.6641L21.7969 20.9766L20.9766 21.7969Z" fill="white"/>
</svg>
